# xmcd CD database file
#
# Track frame offsets:
#	150
#	11320
#	24910
#	36949
#	47694
#	57004
#	68620
#	80835
#
# Disc length: 1217 seconds
#
# Revision: 0
# Processed by: cddbd v1.5.2PL0 Copyright (c) Steve Scherf et al.
# Submitted via: CDex 1.51
#
DISCID=5704bf08
DTITLE=BRID DOLAN - OUR PRECIOUS ONES
DYEAR=1900
DGENRE=Country
TTITLE0=DEEPENING SNOW
TTITLE1=DOOR IS ALAYS OPEN
TTITLE2=DON'T LET ME CROSS OVER
TTITLE3=LOOKING FOR SOMEONE LIKE YOU
TTITLE4=LOVE ME TONIGHT
TTITLE5=KICKING OUR HARTS AROUND
TTITLE6=OLD FLAMES
TTITLE7=EXCEPT FOR MONDAYS
EXTD=
EXTT0=
EXTT1=
EXTT2=
EXTT3=
EXTT4=
EXTT5=
EXTT6=
EXTT7=
PLAYORDER=
